<?xml version="1.0" encoding="UTF-8"?>
<svg id="_レイヤー_2" data-name="レイヤー 2" xmlns="http://www.w3.org/2000/svg" viewBox="0 0 68.97 50.4">
  <defs>
    <style>
      .cls-1 {
        fill: #231815;
      }
    </style>
  </defs>
  <g id="_レイヤー_1-2" data-name="レイヤー 1">
    <path class="cls-1" d="M68.86,0H6.14L.03,6.1c-.07.07-.02.19.08.19h24.92v6.3s-12.6,0-12.6,0l-6.3,6.3c0,9.62,0,21.81,0,31.39,0,.06.05.11.11.11h50.28,0s6.29-6.3,6.29-6.3h0c0-9.52-.01-21.83,0-31.39,0-.06-.05-.11-.11-.11h-18.79v-6.3s18.89,0,18.89,0L68.94.19c.07-.07.02-.19-.08-.19ZM37.63,6.3v6.3s-6.3,0-6.3,0v-6.3s6.3,0,6.3,0ZM56.54,44.09h0s-44.1,0-44.1,0c0-7.04,0-18.09,0-25.21h12.6c0,3.14,0,9.46,0,12.6h-6.3l-6.31,6.3h12.6l6.3-6.3c0-3.14,0-9.46,0-12.6h6.3c0,3.97,0,14.58,0,18.79,0,.06.05.11.11.11h18.79v6.3ZM56.53,18.89v12.6s-12.59,0-12.59,0c0-3.14-.01-9.46-.01-12.6h12.6Z"/>
  </g>
</svg>