<?xml version="1.0" encoding="UTF-8"?>
<svg id="_レイヤー_2" data-name="レイヤー 2" xmlns="http://www.w3.org/2000/svg" viewBox="0 0 72.9 51.32">
  <defs>
    <style>
      .cls-1 {
        fill: #231815;
      }
    </style>
  </defs>
  <g id="_レイヤー_1-2" data-name="レイヤー 1">
    <path class="cls-1" d="M72.75,0H9.01L1.81,6.12c-.13.11-.08.29.07.29h25.25l-1.13,6.41h-12.83l-7.54,6.41C3.9,29.02,1.71,41.4,0,51.15c-.02.09.05.17.14.17h51.15,0s7.53-6.41,7.53-6.41h0c1.7-9.67,3.9-22.19,5.63-31.91.02-.09-.05-.17-.14-.17h-19.08l1.13-6.41h19.24l7.21-6.12c.13-.11.08-.29-.07-.29ZM39.96,6.41l-1.12,6.41h-6.42l1.13-6.41h6.41ZM52.42,44.9h0s-44.9,0-44.9,0c1.26-7.17,3.25-18.42,4.52-25.67h12.83c-.56,3.2-1.7,9.64-2.26,12.83h-6.41l-7.55,6.41h12.83l7.54-6.41c.56-3.2,1.7-9.64,2.26-12.83h6.41c-.71,4.02-2.6,14.76-3.36,19.08-.02.09.05.16.14.16h19.08l-1.13,6.41ZM56.94,19.24l-2.26,12.83h-12.83c.56-3.2,1.69-9.64,2.25-12.83h12.83Z"/>
  </g>
</svg>