<?xml version="1.0" encoding="UTF-8"?>
<svg id="_レイヤー_2" data-name="レイヤー 2" xmlns="http://www.w3.org/2000/svg" viewBox="0 0 254.66 57.49">
  <defs>
    <style>
      .cls-1 {
        fill: #fff;
      }
    </style>
  </defs>
  <g id="_レイヤー_1-2" data-name="レイヤー 1">
    <path class="cls-1" d="M72.75,6.17H9.01L1.81,12.3c-.13.11-.08.29.07.29h25.25l-1.13,6.41h-12.83l-7.54,6.41C3.9,35.19,1.71,47.58,0,57.32c-.02.09.05.17.14.17h51.15,0s7.53-6.41,7.53-6.41h0c1.7-9.67,3.9-22.19,5.63-31.91.02-.09-.05-.17-.14-.17h-19.08l1.13-6.41h19.24l7.21-6.12c.13-.11.08-.29-.07-.29ZM39.96,12.59l-1.12,6.41h-6.42l1.13-6.41h6.41ZM52.42,51.07h0s-44.9,0-44.9,0c1.26-7.17,3.25-18.42,4.52-25.67h12.83c-.56,3.2-1.7,9.64-2.26,12.83h-6.41l-7.55,6.41h12.83l7.54-6.41c.56-3.2,1.7-9.64,2.26-12.83h6.41c-.71,4.02-2.6,14.76-3.36,19.08-.02.09.05.16.14.16h19.08l-1.13,6.41ZM56.94,25.41l-2.26,12.83h-12.83c.56-3.2,1.69-9.64,2.25-12.83h12.83Z"/>
    <g>
      <path class="cls-1" d="M122.41,31.83l-22.64,19.25-1.06,6c-.03.15.14.23.26.12,8.47-7.2,21.39-18.19,29.84-25.37,0,0,3.56-20.18,4.46-25.25.03-.15-.14-.23-.27-.12l-7.21,6.12-3.39,19.25Z"/>
      <path class="cls-1" d="M91.46,25.42l3.32-18.84c.03-.15-.14-.23-.27-.12l-7.2,6.12-2.26,12.83,10.34,12.27c.09.11.28.03.31-.12l1.05-5.73c-1.31-1.6-3.96-4.82-5.28-6.41Z"/>
    </g>
    <path class="cls-1" d="M194.1,6.17h-38.32l-7.2,6.12c-.13.11-.08.29.07.29h38.07c-1.01,5.71-2.39,13.53-3.39,19.25l-22.64,19.25-1.06,6c-.03.15.14.23.26.12,4.77-4.06,29.84-25.37,29.84-25.37,1.4-7.98,3.09-17.49,4.5-25.49.02-.09-.05-.17-.14-.17Z"/>
    <path class="cls-1" d="M254.52,25.42h-31.66c1.39-7.9,3.06-17.3,4.46-25.25.03-.15-.14-.22-.27-.12l-7.21,6.12c-2.21,12.56-8.26,46.82-8.98,50.91-.03.15.14.22.27.11l7.21-6.12,3.39-19.24h25.66l7.2-6.13c.13-.11.08-.29-.07-.29Z"/>
  </g>
</svg>